<svg id="euromerkkisvg" width="3em" height="3em" viewBox="0 0 40 41" fill="none" xmlns="http://www.w3.org/2000/svg">
<path fill-rule="evenodd" clip-rule="evenodd" d="M20 40.1223C31.0594 40.1223 40 31.3711 40 20.5459C40 9.77122 31.0594 0.969406 20 0.969406C8.94057 0.969406 0 9.72064 0 20.5459C0 31.3711 8.94057 40.1223 20 40.1223ZM20.7235 12.2676C18.3409 12.2676 16.4005 14.1669 16.4005 16.4991V18.7071H22.739C23.4055 18.7071 23.9458 19.2359 23.9458 19.8883C23.9458 20.5406 23.4055 21.0694 22.739 21.0694H16.4005V21.3881H20C20.6665 21.3881 21.2067 21.917 21.2067 22.5693C21.2067 23.2216 20.6665 23.7505 20 23.7505H16.4005V24.5927C16.4005 26.9249 18.3409 28.8241 20.7235 28.8241C22.0416 28.8241 23.0692 28.2379 23.9309 27.2257C24.3575 26.7246 25.1184 26.6569 25.6304 27.0745C26.1424 27.4921 26.2116 28.2369 25.7849 28.7381C24.5794 30.154 22.9196 31.1865 20.7235 31.1865C17.008 31.1865 13.9871 28.2296 13.9871 24.5927V23.7505H11.7313C11.0648 23.7505 10.5246 23.2216 10.5246 22.5693C10.5246 21.917 11.0648 21.3881 11.7313 21.3881H13.9871V21.0694H11.7313C11.0648 21.0694 10.5246 20.5406 10.5246 19.8883C10.5246 19.2359 11.0648 18.7071 11.7313 18.7071H13.9871V16.4991C13.9871 12.8622 17.008 9.90529 20.7235 9.90529C22.9196 9.90529 24.5794 10.9377 25.7849 12.3537C26.2116 12.8548 26.1424 13.5996 25.6304 14.0173C25.1184 14.4349 24.3575 14.3672 23.9309 13.866C23.0692 12.8539 22.0416 12.2676 20.7235 12.2676Z" fill="#F18701"/>
</svg>
