<svg width="3.5em" height="3.5em" fill="none" xmlns="http://www.w3.org/2000/svg" viewBox="0 0 40 40">
  <path fill="#232323" d="M0 0h40v40H0z"/>
  <path fill-rule="evenodd" clip-rule="evenodd" d="M7.00002 6.6H23c.2209 0 .4.17909.4.4v7c0 .2209-.1791.4-.4.4h-5.8148c-.8836 0-1.6.7163-1.6 1.6v14.4308c0 .8836.7164 1.6 1.6 1.6H30c.2209 0 .4.1791.4.4V34c0 .2209-.1791.4-.4.4H7.00002c-.22091 0-.4-.1791-.4-.4V7c0-.22091.17909-.4.4-.4ZM23 5.4H7.00002c-.88365 0-1.6.71635-1.6 1.6v27c0 .8837.71635 1.6 1.6 1.6H30c.8837 0 1.6-.7163 1.6-1.6v-1.5692c0-.8837-.7163-1.6-1.6-1.6H17.1852c-.2209 0-.4-.1791-.4-.4V16c0-.2209.1791-.4.4-.4H20v1.9c0 .8284.6716 1.5 1.5 1.5s1.5-.6716 1.5-1.5v-1.9c.8837 0 1.6-.7163 1.6-1.6V7c0-.88365-.7163-1.6-1.6-1.6Zm-1.8 10.8v1.3c0 .1657.1343.3.3.3s.3-.1343.3-.3v-1.3h-.6Zm-2 5h6.6V26c0 1.5464-1.2536 2.8-2.8 2.8h-1c-1.5464 0-2.8-1.2536-2.8-2.8v-4.8ZM18 26v-6h9v2h1c1.1046 0 2 .8954 2 2s-.8954 2-2 2h-1c0 2.2091-1.7909 4-4 4h-1c-2.2091 0-4-1.7909-4-4Zm9.2-1.2v-1.6h.8c.4418 0 .8.3582.8.8s-.3582.8-.8.8h-.8Z" fill="#fff"/>
</svg>
