<svg fill="none" width="3.5em" height="3.5em" xmlns="http://www.w3.org/2000/svg" viewBox="0 0 40 40">
  <path fill="#232323" d="M0 0h40v40H0z"/>
  <path d="M28.3 11.8V8.9h2.9V6H10.9C9.305 6 8 7.305 8 8.9v23.2c0 1.595 1.305 2.9 2.9 2.9h20.3v-2.9h-5.8435C27.14 30.7805 28.3 28.678 28.3 26.3v-7.25H13.8v7.25c0 2.378 1.1745 4.4805 2.9435 5.8H10.9V8.9h2.9v2.9c0 .7975.6525 1.45 1.45 1.45h11.6c.7975 0 1.45-.6525 1.45-1.45ZM16.7 26.3v-4.35h8.7v4.35c0 2.3925-1.9575 4.35-4.35 4.35-2.3925 0-4.35-1.9575-4.35-4.35Z" fill="#fff"/>
  <path d="M21.05 17.6c.8008 0 1.45-.6492 1.45-1.45s-.6492-1.45-1.45-1.45-1.45.6492-1.45 1.45.6492 1.45 1.45 1.45Z" fill="#fff"/>
</svg>
