<svg width="3.5em" height="3.5em" fill="none" xmlns="http://www.w3.org/2000/svg" viewBox="0 0 40 40">
  <path fill="#232323" d="M0 0h40v40H0z"/>
  <path fill-rule="evenodd" clip-rule="evenodd" d="M19.3043 10.8153c-2.136.0299-3.6998.0127-4.8956-.0004-.5188-.0056-.9683-.0106-1.3652-.0106-1.4382 0-2.9911.1766-4.3762 1.0671-1.39915.8994-2.52192 2.4571-3.24923 5.0027C4.00028 21.8364 4 24.6949 4 28.1957c0 1.9655.80956 3.2486 2.08426 3.9921 1.20795.7047 2.75368.8774 4.17664.8774.9425 0 1.7147-.4753 2.3738-1.0349.4336-.368.8847-.8347 1.3333-1.2989.2138-.2212.427-.4418.6375-.6509C15.9645 28.7308 17.5342 27.5 20 27.5c2.4658 0 4.0355 1.2308 5.3945 2.5805.2105.2091.4237.4297.6375.6509.4486.4642.8997.9309 1.3333 1.2989.6591.5596 1.4313 1.0349 2.3738 1.0349 1.423 0 2.9687-.1727 4.1766-.8774C35.1904 31.4443 36 30.1612 36 28.1957c0-3.5008-.0003-6.3593-1.4181-11.3216-.7273-2.5456-1.8501-4.1033-3.2492-5.0027-1.3851-.8905-2.938-1.0671-4.3762-1.0671-.3969 0-.8464.005-1.3652.0106-1.1958.0131-2.7596.0303-4.8956.0004V5.93478h-1.3914v4.88052ZM20 12.1958c-2.5063.0443-4.3097.0246-5.63.0102-.51-.0056-.948-.0103-1.3265-.0103-1.3445 0-2.5742.1712-3.62384.846-1.03564.6658-1.99983 1.8907-2.66382 4.2146C5.3913 22.0322 5.3913 24.7387 5.3913 28.1935v.0022c0 1.5126.58175 2.3165 1.394 2.7904.87901.5127 2.11589.6878 3.4756.6878.4488 0 .9034-.2203 1.4734-.7042.3826-.3248.7501-.7055 1.1657-1.1362.2243-.2325.4627-.4795.7251-.7401 1.4426-1.4329 3.3511-2.9847 6.3749-2.9847s4.9323 1.5518 6.3749 2.9847c.2624.2606.5008.5076.7251.7401.4156.4307.7831.8114 1.1657 1.1362.57.4839 1.0246.7042 1.4734.7042 1.3597 0 2.5966-.1751 3.4756-.6878.8123-.4739 1.394-1.2778 1.394-2.7904v-.0022c0-3.4548 0-6.1613-1.3645-10.9372-.664-2.3239-1.6282-3.5488-2.6639-4.2146-1.0496-.6748-2.2793-.846-3.6238-.846-.3785 0-.8165.0047-1.3265.0103-1.3203.0144-3.1237.0341-5.63-.0102Zm-7.6522 6.9564v-3.4783h1.3913v3.4783h3.4783v1.3913h-3.4783v3.4782h-1.3913v-3.4782H8.86957v-1.3913h3.47823Zm8.3479-.6957c0-1.1526.9343-2.0869 2.0869-2.0869s2.087.9343 2.087 2.0869-.9344 2.087-2.087 2.087-2.0869-.9344-2.0869-2.087Zm2.0869-.6956c-.3842 0-.6956.3114-.6956.6956s.3114.6957.6956.6957.6957-.3115.6957-.6957-.3115-.6956-.6957-.6956Zm3.4783 4.8695c0-1.1526.9343-2.0869 2.0869-2.0869s2.087.9343 2.087 2.0869-.9344 2.087-2.087 2.087-2.0869-.9344-2.0869-2.087Zm2.0869-.6956c-.3842 0-.6956.3114-.6956.6956s.3114.6957.6956.6957.6957-.3115.6957-.6957-.3115-.6956-.6957-.6956Z" fill="#fff"/>
</svg>
