<svg width="3.5em" height="3.5em" fill="none" xmlns="http://www.w3.org/2000/svg" viewBox="0 0 40 40">
  <path fill="" d="M0 0h40v40H0z"/>
  <path d="M19.0381 21.5244c.0524-.203.1545-.3653.284-.4513.1294-.086.2755-.0887.4062-.0073l1.8657 1.1596c.3797.2359.8032.2359 1.1829 0l1.0768-.6697c.6329-.3933 1.3389-.3933 1.9718 0l1.0778.6697c.3797.2359.8033.2359 1.183 0l1.0767-.6697c.6329-.3933 1.339-.3933 1.9719 0l1.0778.6697c.3797.2359.8032.2359 1.1829 0l1.8657-1.1596c.065-.043.1349-.0653.2056-.0658.0706-.0004.1406.021.2059.0631.0652.0421.1244.104.174.1821.0497.0781.0888.1708.1151.2727.0263.1019.0392.2109.038.3206-.0012.1098-.0164.218-.0449.3185-.0284.1005-.0695.1911-.1208.2666-.0513.0755-.1118.1343-.1779.173l-1.8667 1.1596c-.633.3933-1.339.3933-1.9719 0l-1.0768-.6697c-.3797-.2359-.8032-.2359-1.1829 0l-1.0778.6697c-.6329.3933-1.339.3933-1.9719 0l-1.0767-.6697c-.3797-.2359-.8032-.2359-1.1829 0l-1.0778.6697c-.6329.3933-1.339.3933-1.9719 0l-1.8657-1.1596c-.1307-.0814-.2352-.2401-.2905-.4412-.0554-.2011-.0571-.428-.0047-.631Zm0 4.9487c.0524-.2029.1545-.3653.284-.4513.1294-.086.2755-.0886.4062-.0073l1.8657 1.1597c.3797.2359.8032.2359 1.1829 0l1.0768-.6697c.6329-.3933 1.3389-.3933 1.9718 0l1.0778.6697c.3797.2359.8033.2359 1.183 0l1.0767-.6697c.6329-.3933 1.339-.3933 1.9719 0l1.0778.6697c.3797.2359.8032.2359 1.1829 0l1.8657-1.1597c.065-.0429.1349-.0653.2056-.0657.0706-.0005.1406.021.2059.0631.0652.0421.1244.104.174.1821.0497.0781.0888.1708.1151.2727.0263.1019.0392.2109.038.3206-.0012.1097-.0164.218-.0449.3185-.0284.1004-.0695.1911-.1208.2665-.0513.0755-.1118.1343-.1779.1731l-1.8667 1.1596c-.633.3933-1.339.3933-1.9719 0l-1.0768-.6697c-.3797-.2359-.8032-.2359-1.1829 0l-1.0778.6697c-.6329.3933-1.339.3933-1.9719 0l-1.0767-.6697c-.3797-.2359-.8032-.2359-1.1829 0l-1.0778.6697c-.6329.3933-1.339.3933-1.9719 0l-1.8657-1.1596c-.1307-.0815-.2352-.2401-.2905-.4412-.0554-.2011-.0571-.4281-.0047-.6311Z" fill="white"/>
  <path fill-rule="evenodd" clip-rule="evenodd" d="M16.0823 6.15545c.2127.15479.3388.40337.3388.66809 0 1.09206.4297 2.1394 1.1946 2.91161.765.77225 1.8025 1.20605 2.8843 1.20605s2.1193-.4338 2.8843-1.20605c.7649-.77221 1.1946-1.81955 1.1946-2.91161 0-.26472.1261-.5133.3388-.66809.2128-.15478.4862-.19689.735-.11318l9.7895 3.29411c.3331.1121.5578.4268.5578.78132v8.2352c0 .4549-.3652.8236-.8158.8236h-4.0789V19.5c0 .4548-.3653.8235-.8158.8235-.4506 0-.8158-.3687-.8158-.8235v-1.1471c0-.4548.3652-.8235.8158-.8235h4.0789v-6.8182l-8.2641-2.78082c-.2165 1.11686-.7576 2.15302-1.5663 2.96942-1.071 1.0811-2.5235 1.6884-4.038 1.6884-1.5145 0-2.967-.6073-4.038-1.6884-.8087-.8164-1.3498-1.85256-1.5663-2.96942L6.63158 10.7112v6.8182h4.07892c.4506 0 .8158.3687.8158.8235v13.1765c0 .2184.086.4279.239.5823.1529.1545.3604.2412.5768.2412h12.6968c.4505 0 .8158.3687.8158.8236 0 .4548-.3653.8235-.8158.8235H12.3421c-.6491 0-1.2716-.2603-1.7305-.7236-.459-.4633-.71686-1.0917-.71686-1.747V19.1765H5.81579c-.45055 0-.81579-.3687-.81579-.8236v-8.2352c0-.35452.22469-.66922.55781-.78132l9.78949-3.29411c.2488-.08371.5222-.0416.735.11318Z" fill="white"/>
</svg>
