<svg width="3.5em" height="3.5em" fill="none" xmlns="http://www.w3.org/2000/svg" viewBox="0 0 40 40">
  <path fill="#232323" d="M0 0h40v40H0z"/>
  <path fill-rule="evenodd" clip-rule="evenodd" d="M13.8 7.5c0 1.27026-1.0297 2.3-2.3 2.3-1.2703 0-2.3-1.02974-2.3-2.3 0-1.27025 1.0297-2.3 2.3-2.3 1.2703 0 2.3 1.02975 2.3 2.3Zm1.2 0c0 1.933-1.567 3.5-3.5 3.5S8 9.433 8 7.5 9.567 4 11.5 4 15 5.567 15 7.5Zm14.8099 7.3105c.0704.0762.2034.1363.3697.1671.1664.0308.3523.0298.5171-.0028.1647-.0325.2947-.094.3615-.1708l.9501-1.0975c.3223-.3723.3223-.7877 0-1.16l-.5487-.634c-.1933-.2233-.1933-.4724 0-.6958l.5487-.6334c.3223-.3723.3223-.7876 0-1.1599l-.5487-.634c-.1933-.22334-.1933-.47249 0-.69583l.5487-.63338c.3223-.3723.3223-.78763 0-1.15994l-.9501-1.09809c-.0318-.03889-.08-.07446-.1418-.10464-.0619-.03017-.1361-.05433-.2184-.07107-.0823-.01674-.171-.02571-.261-.02641-.0899-.00069-.1792.00692-.2627.02238-.0834.01547-.1594.03848-.2234.06768-.064.0292-.1147.06401-.1492.10239s-.0521.07956-.0517.12112c.0004.04156.0187.08266.0539.12091l.9501 1.09747c.1933.22335.1933.47249 0 .69584l-.5487.634c-.3222.3723-.3222.78763 0 1.15993l.5487.63338c.1933.22334.1933.47246 0 .69586l-.5487.634c-.3222.3723-.3222.7876 0 1.1599l.5487.6334c.1933.2233.1933.4725 0 .6958l-.9501 1.0975c-.0667.0769-.0645.1628.006.2389Zm-3.75 3.75c.0704.0762.2034.1363.3697.1671.1664.0308.3523.0298.5171-.0028.1647-.0325.2947-.094.3615-.1708l.9501-1.0975c.3223-.3723.3223-.7877 0-1.16l-.5487-.634c-.1933-.2233-.1933-.4724 0-.6958l.5487-.6334c.3223-.3723.3223-.7876 0-1.1599l-.5487-.634c-.1933-.2233-.1933-.4725 0-.6958l.5487-.6334c.3223-.3723.3223-.7876 0-1.1599l-.9501-1.09814c-.0318-.03889-.08-.07446-.1418-.10464-.0619-.03017-.1361-.05433-.2184-.07107-.0823-.01674-.171-.02571-.261-.02641-.0899-.00069-.1792.00692-.2627.02238-.0834.01547-.1594.03848-.2234.06768-.064.0292-.1147.06401-.1492.10239s-.0521.07956-.0517.12112c.0004.04156.0187.08266.0539.12091l.9501 1.09748c.1933.2233.1933.4725 0 .6958l-.5487.634c-.3222.3723-.3222.7877 0 1.16l.5487.6333c.1933.2234.1933.4725 0 .6959l-.5487.634c-.3222.3723-.3222.7876 0 1.1599l.5487.6334c.1933.2233.1933.4725 0 .6958l-.9501 1.0975c-.0667.0769-.0645.1628.006.2389Zm7.8697.1671c-.1663-.0308-.2993-.0909-.3697-.1671-.0705-.0761-.0727-.162-.006-.2389l.9501-1.0975c.1933-.2233.1933-.4725 0-.6958l-.5487-.6334c-.3222-.3723-.3222-.7876 0-1.1599l.5487-.634c.1933-.2234.1933-.4725 0-.6959l-.5487-.6333c-.3222-.3723-.3222-.7877 0-1.16l.5487-.634c.1933-.2233.1933-.4725 0-.6958l-.9501-1.09748c-.0352-.03825-.0535-.07935-.0539-.12091-.0004-.04156.0172-.08274.0517-.12112.0345-.03838.0852-.07319.1492-.10239.064-.0292.14-.05221.2234-.06768.0835-.01546.1728-.02307.2627-.02238.09.0007.1787.00967.261.02641.0823.01674.1565.0409.2184.07107.0618.03018.11.06575.1418.10464l.9501 1.09814c.3223.3723.3223.7876 0 1.1599l-.5487.6334c-.1933.2233-.1933.4725 0 .6958l.5487.634c.3223.3723.3223.7876 0 1.1599l-.5487.6334c-.1933.2234-.1933.4725 0 .6958l.5487.634c.3223.3723.3223.7877 0 1.16l-.9501 1.0975c-.0668.0768-.1968.1383-.3615.1708-.1648.0326-.3507.0336-.5171.0028ZM6.25306 12.0403C7.00409 11.6427 7.96581 11.5 9 11.5c.71353 0 1.7693.2186 2.6599.8861.9149.6857 1.6162 1.8177 1.6162 3.5447v5.3341c0 .0173.0006.031.0015.042l.0006.0065.001.0075c.0185.0245.0403.0454.0625.0597.0225.0143.0496.0251.0911.0251h3.2836c.6279 0 1.558.1852 2.3455.7553.8128.5885 1.4381 1.564 1.4381 3.0465v9.5912c0 .4514-.1371 1.1137-.56 1.6763-.4411.5867-1.1651 1.025-2.2385 1.025-1.2956 0-2.0366-.4995-2.4276-1.0881-.1858-.2796-.2775-.5569-.3232-.7631-.023-.1038-.0348-.1919-.041-.2568-.0031-.0325-.0048-.0595-.0057-.08l-.0004-.0101-.0004-.0158-.0002-.0091v-.0052c0-.0003 0-.0014.5-.0014h-.5v-8.2003c.0002-.157.0002-.1882-.0794-.2528-.1455-.1183-.592-.3173-1.8236-.3173H6.92593c-.57517 0-1.04117-.2066-1.3968-.5473-.34355-.329-.56296-.7619-.70718-1.1946C4.53537 23.8984 4.5 22.8954 4.5 22.2667c0-2.0078.05803-6.4992.30158-8.1614.14274-.9742.67139-1.6519 1.45148-2.065ZM13 25.5c1.2684 0 2.0234.191 2.4544.5412.4606.3745.4521.8498.449 1.0216v.0003l-.0002.0122-.0002.019v8.1717l.0001.0017c.0002.0049.0007.0151.0021.0298.0029.0297.0089.0767.0219.1351.0261.118.0781.2731.1796.4259.1836.2762.5919.6415 1.5948.6415.7654 0 1.1907-.2955 1.4391-.6259.2667-.3547.3594-.793.3594-1.0754v-9.5912c0-1.1589-.4692-1.8344-1.0246-2.2365-.5807-.4204-1.2923-.5653-1.759-.5653h-3.2836c-.5104 0-.836-.305-.9956-.544-.1457-.2181-.1611-.4545-.1611-.5968v-5.3341c0-1.4177-.5574-2.251-1.2159-2.7445C10.3774 12.6745 9.54517 12.5 9 12.5c-.96581 0-1.73743.1373-2.27898.4241-.51251.2714-.83571.6826-.93001 1.3262C5.56048 15.8236 5.5 20.23 5.5 22.2667c0 .6157.0387 1.4794.27064 2.1752.11504.3451.266.6122.45023.7887.17215.1649.39133.2694.70506.2694H13Zm-9 3v-1h8c.8284 0 1.5.6716 1.5 1.5v8h-1v-8c0-.2761-.2239-.5-.5-.5H4Zm27.2105-6.7105h-3.7894c-.2617 0-.4737.4006-.4737.8947V37H26V22.6842C26 21.2018 26.6362 21 27.4211 21H35v.7895h-3.7895Z" fill="#fff"/>
</svg>
