<svg id="suihkusvg" width="3em" height="3em" viewBox="0 0 45 47" fill="none" xmlns="http://www.w3.org/2000/svg">
<path id="suihkuicon" d="M14.1254 25.1996C13.9511 23.4453 14.04 21.6876 14.0742 19.9333C14.0878 19.1297 14.7032 18.8834 15.4518 18.8869C18.402 18.8971 21.3557 18.8698 24.3059 18.9074C24.9964 18.9142 25.2904 18.7535 25.2152 18.0183C25.1537 17.4267 25.1981 16.8282 25.205 16.2298C25.2186 15.05 25.5058 14.7559 26.6544 14.7388C26.798 14.7388 26.9416 14.7217 27.0783 14.7388C27.721 14.838 27.9022 14.5644 27.8988 13.9318C27.8714 10.6386 27.8851 7.34204 27.8851 4.04889C27.8851 2.85885 27.2994 2.26382 26.128 2.26382C18.4636 2.26382 10.8026 2.27408 3.13823 2.25015C2.4511 2.25015 2.22547 2.40061 2.22889 3.13242C2.25624 11.4251 2.25624 19.7178 2.22889 28.0106C2.22889 28.7492 2.46477 28.9407 3.14848 28.886C3.8527 28.8313 4.56718 28.8586 5.27482 28.8826C6.00981 28.9065 6.45422 29.2929 6.46106 30.0487C6.47473 32.6887 6.47473 35.3321 6.46106 37.9721C6.46106 38.721 6.04741 39.1313 5.29533 39.1484C4.52957 39.1655 3.7604 39.1929 2.99806 39.1484C2.37247 39.1074 2.22547 39.3673 2.23573 39.9418C2.25966 41.9594 2.2118 43.977 2.26308 45.9912C2.28359 46.764 2.06822 47.106 1.26828 46.9829C1.01872 46.9453 0.755496 46.9624 0.502524 46.9829C0.13332 47.0103 -0.0170959 46.8461 -0.00342174 46.487C0.00683391 46.2887 -0.00342174 46.0904 -0.00342174 45.892C-0.00342174 31.2079 -0.00342174 16.5273 -0.00342174 1.8432C-3.19037e-06 0.273574 0.273481 0 1.8255 0C10.683 0 19.537 0 28.3911 0C29.8029 0 30.1413 0.338548 30.1413 1.75087C30.1413 5.78267 30.1584 9.81788 30.1277 13.8497C30.1208 14.5576 30.3089 14.8482 31.0268 14.7422C31.2763 14.7046 31.5361 14.7285 31.7925 14.7422C32.7258 14.7764 33.0574 15.0979 33.0881 16.0519C33.1121 16.7598 33.1223 17.4745 33.0881 18.1824C33.0574 18.7398 33.2522 18.9108 33.8163 18.9074C36.7665 18.88 39.7201 18.8937 42.6703 18.8971C43.901 18.8971 44.2565 19.2288 44.236 20.4531C44.2087 22.0364 44.3523 23.6265 44.1574 25.2064C43.8258 25.8767 43.272 26.0408 42.5541 26.0613C39.809 26.1366 37.0639 26.0819 34.3188 26.0819C31.9156 26.0819 29.5089 26.0853 27.1057 26.0682C23.3419 26.0374 19.578 26.0682 15.8176 26.0613C15.0621 26.0613 14.4912 25.8835 14.1289 25.203L14.1254 25.1996Z" fill="white"/>
</svg>
