<svg fill="none"  width="3em" height="3em" xmlns="http://www.w3.org/2000/svg" viewBox="0 0 46 47">
  <g clip-path="url(#a)">
    <path d="M14.1254 25.1996c-.1743-1.7543-.0854-3.512-.0512-5.2663.0136-.8036.629-1.0499 1.3776-1.0464 2.9502.0102 5.9039-.0171 8.8541.0205.6905.0068.9845-.1539.9093-.8891-.0615-.5916-.0171-1.1901-.0102-1.7885.0136-1.1798.3008-1.4739 1.4494-1.491.1436 0 .2872-.0171.4239 0 .6427.0992.8239-.1744.8205-.807-.0274-3.2932-.0137-6.58976-.0137-9.88291 0-1.19004-.5857-1.78507-1.7571-1.78507-7.6644 0-15.3254.01026-22.98977-.01367-.68713 0-.91276.15046-.90934.88227.02735 8.29268.02735 16.58538 0 24.87818 0 .7386.23588.9301.91959.8754.70422-.0547 1.4187-.0274 2.12634-.0034.73499.0239 1.1794.4103 1.18624 1.1661.01367 2.64.01367 5.2834 0 7.9234 0 .7489-.41365 1.1592-1.16573 1.1763-.76576.0171-1.53493.0445-2.29727 0-.62559-.041-.77259.2189-.76233.7934.02393 2.0176-.02393 4.0352.02735 6.0494.02051.7728-.19486 1.1148-.9948.9917-.24956-.0376-.512784-.0205-.765756 0-.369204.0274-.5196199-.1368-.50594574-.4959.01025565-.1983 0-.3966 0-.595V1.8432C-.00000319.273574.273481 0 1.8255 0h26.5656c1.4118 0 1.7502.338548 1.7502 1.75087 0 4.0318.0171 8.06701-.0136 12.09883-.0069.7079.1812.9985.8991.8925.2495-.0376.5093-.0137.7657 0 .9333.0342 1.2649.3557 1.2956 1.3097.024.7079.0342 1.4226 0 2.1305-.0307.5574.1641.7284.7282.725 2.9502-.0274 5.9038-.0137 8.854-.0103 1.2307 0 1.5862.3317 1.5657 1.556-.0273 1.5833.1163 3.1734-.0786 4.7533-.3316.6703-.8854.8344-1.6033.8549-2.7451.0753-5.4902.0206-8.2353.0206-2.4032 0-4.8099.0034-7.2131-.0137-3.7638-.0308-7.5277 0-11.2881-.0069-.7555 0-1.3264-.1778-1.6887-.8583l-.0035-.0034Z" fill="#fff"/>
    <path d="M14.0126 35.2363c.9333.0137 1.6512.7387 1.658 1.6791.0069.9746-.7486 1.7201-1.7229 1.703-.9299-.0171-1.6649-.7558-1.6683-1.6791-.0034-.9507.7726-1.7167 1.7332-1.703Zm15.1511 3.3821c-.9572.0102-1.7469-.7694-1.7298-1.7099.0171-.913.7726-1.6619 1.6853-1.6722.9504-.0102 1.7435.7729 1.7332 1.7099-.0102.913-.7657 1.6619-1.6853 1.6722h-.0034Zm15.1168 0c-.9401-.0103-1.6546-.7318-1.6614-1.6722-.0069-.9781.735-1.7201 1.7127-1.7099.9537.0103 1.699.7968 1.6682 1.7577-.0308.9233-.7794 1.6312-1.7161 1.621l-.0034.0034Zm-25.8238-6.1349c-.0136.9233-.7589 1.6825-1.6648 1.6927-.9162.0103-1.723-.8139-1.7127-1.7474.0103-.9131.7692-1.6723 1.6819-1.6825.9504-.0103 1.7093.7626 1.6956 1.7372Zm23.0684-1.7338c.9504.0171 1.7025.8139 1.6717 1.7714-.0308.896-.8307 1.6688-1.7127 1.6551-.9367-.0137-1.6785-.8139-1.6546-1.7816.024-.9233.7829-1.6586 1.6991-1.6415l-.0035-.0034Zm-12.3854-.0034c.9094 0 1.6854.7523 1.7093 1.662.0273.9198-.7863 1.7611-1.7093 1.7645-.9196 0-1.7332-.8378-1.7093-1.7611.024-.9131.7932-1.6654 1.7059-1.6654h.0034Zm-4.4885 1.8227c-.0684.913-.882 1.6517-1.764 1.6038-.9298-.0513-1.699-.9131-1.6306-1.8295.0683-.9473.9298-1.6791 1.8596-1.5833.9265.0957 1.6068.8959 1.5384 1.8124l-.0034-.0034Zm10.683 1.6072c-.8889.0103-1.6683-.7523-1.6991-1.6654-.0341-.9609.7248-1.7577 1.6751-1.7645.9025-.0069 1.6854.7489 1.7161 1.6517.0308.9199-.7725 1.7645-1.6921 1.7748v.0034Zm-13.7495 4.4422c-.947.0102-1.6717-.6874-1.6956-1.6312-.0274-.9951.6803-1.744 1.6546-1.7543.9606-.0103 1.7263.7558 1.7161 1.7133-.0103.9267-.7419 1.6585-1.6751 1.6688v.0034Zm-1.4768-12.0646c.694.5471.9914 1.2242.6222 2.0757-.3282.7592-.9367 1.0977-1.7606 1.0122-.8033-.0855-1.2648-.5779-1.4494-1.3268-.1812-.7421.1367-1.3132.7213-1.7577.3897-.4822.9025-.4411 1.4323-.342.1949.0513.3077.2086.4376.342l-.0034-.0034Zm4.9535-.0137c.9675.53.9845 1.9116.3692 2.5716-.6358.6839-1.7503.7386-2.4306.106-.776-.725-.6974-1.7646.1949-2.6468.5606-.5745 1.1144-.5848 1.8665-.0308Zm14.9733.0137c.8068.742.9914 1.3713.6051 2.1475-.3727.7455-.9948 1.0533-1.8119.9336-.7965-.1163-1.2443-.6326-1.3879-1.3918-.1367-.7045.1675-1.2585.7281-1.6825.6974-.5574 1.1521-.5574 1.87-.0068h-.0034ZM38.3971 36.888c.0171.9541-.6666 1.6928-1.5999 1.727-.9709.0376-1.7571-.6908-1.7776-1.6517-.0205-.9541.7452-1.7304 1.7024-1.7304.9401 0 1.658.7113 1.6751 1.6517v.0034Zm-3.3159-10.3206c.7145.5164.8991 1.2345.6256 2.0177-.2291.6497-.7418 1.0395-1.4768 1.0703-.7589.0308-1.3059-.2907-1.6375-.9609-.3692-.7523-.1573-1.4602.6222-2.1476.7315-.5437 1.1862-.5403 1.8699.0205h-.0034Zm-4.9535.0171c.9025.9199.9606 1.9151.1538 2.6503-.6974.6361-1.7913.5677-2.4169-.1471-.694-.7933-.5435-1.7542.4-2.5579.0718-.0581.1436-.1162.2119-.1778.6085-.3317 1.1555-.2325 1.6512.2325Z" fill="#fff"/>
    <path d="M14.1255 25.1996c.6392.8583 1.5691.6702 2.4408.6702 8.355.0035 16.7065 0 25.0614 0 .8991 0 1.8529.1847 2.5263-.6702.0137.4856-.3077.7044-.7008.8583-1.8323.0308-3.6578.2257-5.4936.0787-.7623-.0616-1.5349-.0616-2.2938 0-1.0461.0855-2.0819.0478-3.1246 0-1.1862-.0582-2.3725-.0069-3.5587.0786-3.1758-.1333-6.3517-.0786-9.5275 0-1.5418-.1539-3.0938-.0068-4.6356-.1573-.3897-.1573-.7008-.3796-.6939-.8583Z" fill="#fff"/>
    <path d="M28.9585 26.0579c4.8304-.0684 9.6609-.0684 14.4913 0-.8683.3762-1.7777.0821-2.6631.1847-.2735.0308-.6598-.1744-.7521.3112-.6256-.2599-1.2477-.2497-1.8699.0068-.0239-.1436-.0615-.3009-.2325-.3009-.8751-.0103-1.7503-.0069-2.6288 0-.1744 0-.2051.1641-.2222.3077-.6188-.2564-1.2444-.2804-1.87-.0205-.0308-.1402-.0718-.2906-.2461-.2941-.9025-.0068-1.8084-.0102-2.7109.0035-.212.0034-.147.1915-.1299.3248-.5504-.147-1.0974-.424-1.6717-.082-.188-.554.3658-.2599.5059-.4446v.0034Z" fill="#7A7A7B"/>
    <path d="M28.9586 26.0579c-.1197.2052-.4957.1129-.506.4446-.0649.0102-.1265.0171-.1914.0273-.0445-.1846-.1436-.2872-.3487-.2872-.841.0034-1.6819.0034-2.5195 0-.2085 0-.3008.1094-.335.2975-.6256-.1949-1.2512-.3386-1.8665.0308-.0206-.1437-.0479-.3044-.2222-.3078-.8752-.0103-1.7503-.0103-2.6221-.0034-.1709 0-.2153.1539-.2427.2975-.1401.0444-.2666.0308-.3555-.1026-.0069-.212-.4273-.0958-.3214-.4001l9.531.0068v-.0034Z" fill="#7B7B7D"/>
    <path d="M19.4277 26.0545c.1059.1334.2119.2667.3213.4001-.5264-.2702-1.0119 0-1.511.106-.0752-.4822-.4581-.2872-.7247-.318-.8957-.106-1.8187.1983-2.6938-.1847h4.6116l-.0034-.0034Z" fill="#787879"/>
  </g>
  <defs>
    <clipPath id="a">
      <path fill="#fff" d="M0 0h46v47H0z"/>
    </clipPath>
  </defs>
</svg>
