<svg fill="none" xmlns="http://www.w3.org/2000/svg" viewBox="0 0 40 40">
  <path fill="" d="M0 0h40v40H0z"/>
  <path d="M7.83337 34H19.1667M13.5 25v8.5M22 17.1667 20.5833 7.25H6.41667L5 17.1667c0 4.267 3.80517 7.0833 8.5 7.0833 1-.0833 3.1-.35 3.5-.75" stroke="#000" fill="white" stroke-width="1.41667" stroke-linecap="round" stroke-linejoin="round"/>
  <path d="M19.0358 21.5244c.0494-.203.1455-.3653.2673-.4513.1218-.086.2594-.0887.3824-.0073l1.7559 1.1596c.3574.2359.756.2359 1.1133 0l1.0134-.6697c.5957-.3933 1.2603-.3933 1.8559 0l1.0144.6697c.3574.2359.756.2359 1.1134 0l1.0134-.6697c.5957-.3933 1.2602-.3933 1.8559 0l1.0144.6697c.3573.2359.756.2359 1.1133 0l1.756-1.1596c.0612-.043.1269-.0653.1934-.0658.0665-.0004.1324.021.1938.0631.0614.0421.1171.104.1638.1821.0468.0781.0836.1708.1083.2727.0248.1019.0369.2109.0358.3206-.0011.1098-.0154.218-.0422.3185s-.0655.1911-.1137.2666c-.0483.0755-.1052.1343-.1675.173l-1.7569 1.1596c-.5957.3933-1.2602.3933-1.8559 0l-1.0134-.6697c-.3574-.2359-.756-.2359-1.1133 0l-1.0144.6697c-.5957.3933-1.2603.3933-1.8559 0l-1.0134-.6697c-.3574-.2359-.756-.2359-1.1134 0l-1.0144.6697c-.5957.3933-1.2602.3933-1.8559 0l-1.7559-1.1596c-.123-.0814-.2213-.2401-.2734-.4412-.0521-.2011-.0537-.428-.0045-.631Zm0 4.9487c.0494-.2029.1455-.3653.2673-.4513.1218-.086.2594-.0886.3824-.0073l1.7559 1.1597c.3574.2359.756.2359 1.1133 0l1.0134-.6697c.5957-.3933 1.2603-.3933 1.8559 0l1.0144.6697c.3574.2359.756.2359 1.1134 0l1.0134-.6697c.5957-.3933 1.2602-.3933 1.8559 0l1.0144.6697c.3573.2359.756.2359 1.1133 0l1.756-1.1597c.0612-.0429.1269-.0653.1934-.0657.0665-.0005.1324.021.1938.0631.0614.0421.1171.104.1638.1821.0468.0781.0836.1708.1083.2727.0248.1019.0369.2109.0358.3206-.0011.1097-.0154.218-.0422.3185-.0268.1004-.0655.1911-.1137.2665-.0483.0755-.1052.1343-.1675.1731l-1.7569 1.1596c-.5957.3933-1.2602.3933-1.8559 0l-1.0134-.6697c-.3574-.2359-.756-.2359-1.1133 0l-1.0144.6697c-.5957.3933-1.2603.3933-1.8559 0l-1.0134-.6697c-.3574-.2359-.756-.2359-1.1134 0l-1.0144.6697c-.5957.3933-1.2602.3933-1.8559 0l-1.7559-1.1596c-.123-.0815-.2213-.2401-.2734-.4412-.0521-.2011-.0537-.4281-.0045-.6311Z" fill="white"/>
</svg>
