<svg width="3.5em" height="3.5em" fill="none" xmlns="http://www.w3.org/2000/svg" viewBox="0 0 40 40">
  <path fill="#232323" d="M0 0h40v40H0z"/>
  <path fill-rule="evenodd" clip-rule="evenodd" d="M5.71541 7.14983c.04985-.34896.34871-.60816.70122-.60816H20.5833c.3525 0 .6514.2592.7012.60816l1.4167 9.91667c.0553.3873-.2138.7461-.6011.8014-.3872.0553-.746-.2138-.8014-.6011L19.969 7.95833H7.03096L5.70848 17.2157c.02895 3.7055 3.34105 6.3144 7.76212 6.3259.4851-.0413 1.2198-.1253 1.8778-.2448.3371-.0612.6377-.1288.8686-.1997.1155-.0355.2006-.0679.2583-.0949.0232-.0109.0373-.0187.0444-.0229.2779-.2566.7113-.25.9811.0198.2766.2767.2766.7251 0 1.0018-.1345.1345-.2961.224-.4246.2842-.1377.0645-.29.1192-.4433.1662-.3066.0942-.6685.1735-1.0314.2394-.4695.0852-.9681.1529-1.4013.2017.0053.0351.0081.071.0081.1076v8.2917h4.9584c.3912 0 .7083.3171.7083.7083 0 .3912-.3171.7083-.7083.7083H7.83333c-.3912 0-.70833-.3171-.70833-.7083 0-.3912.31713-.7083.70833-.7083h4.95827V25c0-.021.0009-.0417.0027-.0623-4.62923-.2713-8.50267-3.2069-8.50267-7.771 0-.0336.00237-.067.00712-.1002l1.41666-9.91667ZM19.3031 21.0731c-.1218.086-.2179.2483-.2673.4513-.0492.203-.0476.4299.0045.631s.1504.3598.2734.4412l1.7559 1.1596c.5957.3933 1.2602.3933 1.8559 0l1.0144-.6697c.3574-.2359.756-.2359 1.1134 0l1.0134.6697c.5956.3933 1.2602.3933 1.8559 0l1.0144-.6697c.3573-.2359.7559-.2359 1.1133 0l1.0134.6697c.5957.3933 1.2602.3933 1.8559 0l1.7569-1.1596c.0623-.0387.1192-.0975.1675-.173.0482-.0755.0869-.1661.1137-.2666.0268-.1005.0411-.2087.0422-.3185.0011-.1097-.011-.2187-.0358-.3206-.0247-.1019-.0615-.1946-.1083-.2727-.0467-.0781-.1024-.14-.1638-.1821-.0614-.0421-.1273-.0635-.1938-.0631-.0665.0005-.1322.0228-.1934.0658l-1.756 1.1596c-.3573.2359-.756.2359-1.1133 0l-1.0144-.6697c-.5957-.3933-1.2602-.3933-1.8559 0l-1.0134.6697c-.3574.2359-.756.2359-1.1134 0l-1.0144-.6697c-.5956-.3933-1.2602-.3933-1.8559 0l-1.0134.6697c-.3573.2359-.7559.2359-1.1133 0l-1.7559-1.1596c-.123-.0814-.2606-.0787-.3824.0073Zm0 4.9487c-.1218.086-.2179.2484-.2673.4513-.0492.203-.0476.43.0045.6311s.1504.3597.2734.4412l1.7559 1.1596c.5957.3933 1.2602.3933 1.8559 0l1.0144-.6697c.3574-.2359.756-.2359 1.1134 0l1.0134.6697c.5956.3933 1.2602.3933 1.8559 0l1.0144-.6697c.3573-.2359.7559-.2359 1.1133 0l1.0134.6697c.5957.3933 1.2602.3933 1.8559 0l1.7569-1.1596c.0623-.0388.1192-.0976.1675-.1731.0482-.0754.0869-.1661.1137-.2665.0268-.1005.0411-.2088.0422-.3185.0011-.1097-.011-.2187-.0358-.3206-.0247-.1019-.0615-.1946-.1083-.2727-.0467-.0781-.1024-.14-.1638-.1821-.0614-.0421-.1273-.0636-.1938-.0631-.0665.0004-.1322.0228-.1934.0657l-1.756 1.1597c-.3573.2359-.756.2359-1.1133 0l-1.0144-.6697c-.5957-.3933-1.2602-.3933-1.8559 0l-1.0134.6697c-.3574.2359-.756.2359-1.1134 0l-1.0144-.6697c-.5956-.3933-1.2602-.3933-1.8559 0l-1.0134.6697c-.3573.2359-.7559.2359-1.1133 0l-1.7559-1.1597c-.123-.0813-.2606-.0787-.3824.0073Z" fill="#fff"/>
</svg>
