<svg fill="none" xmlns="http://www.w3.org/2000/svg" viewBox="0 0 40 40">
  <path fill="#232323" d="M0 0h40v40H0z"/>
  <path fill-rule="evenodd" clip-rule="evenodd" d="M7.1385 24.8228c1.066-1.066 2.5118-1.6649 4.0193-1.6649h10.1053c1.5076 0 2.9534.5989 4.0193 1.6649 1.066 1.066 1.6649 2.5118 1.6649 4.0193v2.5263c0 .3488-.2828.6316-.6316.6316-.3488 0-.6315-.2828-.6315-.6316v-2.5263c0-1.1725-.4658-2.297-1.2949-3.1262-.8291-.8291-1.9537-1.2948-3.1262-1.2948H11.1578c-1.17249 0-2.297.4657-3.12611 1.2948-.82911.8292-1.2949 1.9537-1.2949 3.1262v2.5263c0 .3488-.28277.6316-.63158.6316s-.63158-.2828-.63158-.6316v-2.5263c0-1.5075.59887-2.9533 1.66487-4.0193Zm9.0721-15.55964c-2.4417 0-4.4211 1.97934-4.4211 4.42104 0 2.4417 1.9794 4.4211 4.4211 4.4211s4.421-1.9794 4.421-4.4211-1.9793-4.42104-4.421-4.42104Zm-5.6842 4.42104C10.5264 10.5449 13.0713 8 16.2106 8c3.1393 0 5.6842 2.5449 5.6842 5.6842 0 3.1393-2.5449 5.6842-5.6842 5.6842-3.1393 0-5.6842-2.5449-5.6842-5.6842Zm18.9673 10.1116c.0872-.3377.4317-.5408.7694-.4536 1.2195.3148 2.2998 1.0258 3.0715 2.0211.7716.9954 1.1908 2.2189 1.1917 3.4783v2.5268c0 .3488-.2828.6316-.6316.6316-.3488 0-.6316-.2828-.6316-.6316v-2.5263c-.0008-.9794-.3268-1.9308-.9269-2.7049-.6001-.7741-1.4404-1.3271-2.3889-1.572-.3377-.0872-.5408-.4317-.4536-.7694ZM24.4408 8.63913c.0865-.33791.4306-.5417.7685-.45518 1.2227.31306 2.3064 1.02415 3.0803 2.02115.7739.997 1.194 2.2233 1.194 3.4854 0 1.2622-.4201 2.4884-1.194 3.4854-.7739.997-1.8576 1.7081-3.0803 2.0212-.3379.0865-.682-.1173-.7685-.4552-.0865-.3379.1173-.682.4552-.7685.951-.2435 1.7939-.7965 2.3958-1.572.6019-.7755.9286-1.7292.9286-2.7109 0-.9816-.3267-1.9354-.9286-2.7108-.6019-.7755-1.4448-1.32858-2.3958-1.57207-.3379-.08652-.5417-.43059-.4552-.7685Z" fill="#fff"/>
</svg>
